<?xml version="1.0" ?><svg xmlns:sketch="http://www.bohemiancoding.com/sketch/ns" xmlns="http://www.w3.org/2000/svg" xmlns:xlink="http://www.w3.org/1999/xlink" version="1.1" id="Layer_1" viewBox="0 0 100 100" style="enable-background:new 0 0 100 100;" xml:space="preserve"><style type="text/css">
	.st0{fill:#EEEEEE;}
	.st1{fill:#FFFFFF;}
	.st2{fill:#F2EDED;}
	.st3{fill:#123155;}
	.st4{fill:#FBB040;}
	.st5{fill:#CAEAF9;}
	.st6{fill:#005EB8;}
</style><g><g id="Rectangle-290"><g><g id="path-1"><path class="st0" d="M48.8,2.3h2.3c25.7,0,46.5,20.8,46.5,46.5v2.3c0,25.7-20.8,46.5-46.5,46.5h-2.3      c-25.7,0-46.5-20.8-46.5-46.5v-2.3C2.3,23.1,23.1,2.3,48.8,2.3z"/><path class="st1" d="M51.2,100h-2.3C21.9,100,0,78.1,0,51.2v-2.3C0,21.9,21.9,0,48.8,0h2.3C78.1,0,100,21.9,100,48.8v2.3      C100,78.1,78.1,100,51.2,100z M48.8,4.7C24.5,4.7,4.7,24.5,4.7,48.8v2.3c0,24.4,19.8,44.2,44.2,44.2h2.3      c24.4,0,44.2-19.8,44.2-44.2v-2.3c0-24.4-19.8-44.2-44.2-44.2H48.8z"/></g></g><g><g id="path-1_1_"><path class="st2" d="M51.2,98.3h-2.3c-26,0-47.1-21.1-47.1-47.1v-2.3c0-26,21.1-47.1,47.1-47.1h2.3c26,0,47.1,21.1,47.1,47.1      v2.3C98.3,77.1,77.1,98.3,51.2,98.3z M48.8,2.9C23.5,2.9,2.9,23.5,2.9,48.8v2.3c0,25.3,20.6,45.9,45.9,45.9h2.3      c25.3,0,45.9-20.6,45.9-45.9v-2.3c0-25.3-20.6-45.9-45.9-45.9H48.8z"/></g></g></g><g id="Page-1"><g id="_x30_27---UI-Design"><g id="Shape"><path class="st1" d="M27.6,69.9V30.1l2.6-2.6h27.6l2.6,2.6v39.7l-2.6,2.6H30.1L27.6,69.9z"/></g><g id="Rectangle-path"><path class="st3" d="M66.4,62.1H75v5.1h-8.6V62.1z"/></g><g id="Shape_1_"><path class="st4" d="M75,66.4v5.1c0,1.9-1.5,3.5-3.5,3.5h-1.7c-1.9,0-3.5-1.5-3.5-3.5v-5.1H75z"/></g><g id="Shape_2_"><path class="st5" d="M72.7,28.8l2.3,6.5l-4.3,1.7l-4.3-1.7l2.3-6.5H72.7z"/></g><g id="Shape_3_"><path class="st3" d="M72.7,28.8c-1.3,0.7-2.7,0.7-4,0l1.2-3.3c0.1-0.3,0.5-0.6,0.8-0.6c0.3,0,0.7,0.2,0.8,0.6L72.7,28.8z"/></g><g><g id="Oval_1_"><circle class="st4" cx="27.6" cy="27.6" r="2.6"/></g><g id="Oval_2_"><circle class="st4" cx="27.6" cy="72.4" r="2.6"/></g><g id="Oval_3_"><circle class="st4" cx="60.3" cy="27.6" r="2.6"/></g><g id="Oval_4_"><circle class="st4" cx="60.3" cy="72.4" r="2.6"/></g></g><g id="Rectangle-path_1_"><path class="st6" d="M32.8,32.8h6.9c0.9,0,1.7,0.8,1.7,1.7v5.1c0,0.9-0.8,1.7-1.7,1.7h-6.9c-0.9,0-1.7-0.8-1.7-1.7v-5.1      C31,33.5,31.9,32.8,32.8,32.8z"/></g><g><g><g id="Shape_4_"><path class="st3" d="M55.3,45.7H32.8c-0.5,0-0.8-0.3-0.8-0.8s0.3-0.8,0.8-0.8h22.6c0.5,0,0.8,0.3,0.8,0.8S55.8,45.7,55.3,45.7        z"/></g><g id="Shape_5_"><path class="st3" d="M55.3,49.2H32.8c-0.5,0-0.8-0.3-0.8-0.8c0-0.5,0.3-0.8,0.8-0.8h22.6c0.5,0,0.8,0.3,0.8,0.8        C56.2,48.7,55.8,49.2,55.3,49.2z"/></g></g><g><g id="Shape_6_"><path class="st3" d="M55.3,52.6H32.8c-0.5,0-0.8-0.3-0.8-0.8s0.3-0.8,0.8-0.8h22.6c0.5,0,0.8,0.3,0.8,0.8S55.8,52.6,55.3,52.6        z"/></g></g><g><g id="Shape_8_"><path class="st3" d="M55.3,56H32.8c-0.5,0-0.8-0.3-0.8-0.8s0.3-0.8,0.8-0.8h22.6c0.5,0,0.8,0.3,0.8,0.8S55.8,56,55.3,56z"/></g></g><g><g id="Shape_7_"><path class="st3" d="M43.1,59.5H32.7c-0.5,0-0.8-0.3-0.8-0.8c0-0.5,0.3-0.8,0.8-0.8h10.5c0.5,0,0.8,0.3,0.8,0.8        C44.1,59.1,43.6,59.5,43.1,59.5z"/></g></g></g><g id="Shape_12_"><path class="st6" d="M70.7,35.3h-4.3v27.6h4.3H75V35.3H70.7z"/></g></g></g></g></svg>